/* XPM */
static char *maj_xpm[] = {
/* columns rows colors chars-per-pixel */
"15 15 172 2",
"g  c #EDEFEF",
"K. c #CACACB",
"*. c #E3E7F1",
"'  c #EDEFF3",
"<  c #FCFBF6",
"6. c #E8EBF3",
"8  c #F0F3EC",
"~. c #E1E1D7",
"w. c #E8E8F9",
"T  c #C3C6CA",
"X  c #C8CACB",
"B. c #F7F4FF",
"y  c #F5F7F5",
"{  c #E6EBF3",
"2  c #FAFBF7",
"I. c #FAFBF8",
"o. c #C0DCBA",
"3  c #F0F0EE",
")  c #5DA74B",
",  c #FAF8F4",
":  c #FFFFFF",
"z. c #D3E2D8",
"M. c #E4EBE9",
"x. c #E6E8F4",
"R  c #FAF8FE",
"!  c #459A33",
"I  c #E4E8ED",
"B  c #E9ECEE",
"a  c #93CC88",
"s. c #DFE4EE",
"]  c #C6C7CB",
"<. c #B9D5B3",
"d  c #F3F4F3",
"A. c #EEF0F3",
"k. c #A8CCAB",
"v  c #87C47A",
"5  c #F8F5F7",
",. c #DBE7DF",
"   c #E2E2DA",
">. c #FDF9FF",
"&. c #C4C7CB",
"Z  c #F1F4F6",
"E. c #F1F1EE",
"X. c #93C388",
"q  c #F1F1EF",
"r. c #5BA158",
"j. c #ECEDF6",
"`  c #F1F1F8",
"M  c #F6F5FB",
"(  c #469B33",
"C. c #EAEDF0",
"8. c #DBE1ED",
"k  c #C7C8CB",
"-  c #F9F9F3",
"F  c #7EBD72",
"+. c #248311",
"S. c #FEFDFF",
"#. c #DCE8DA",
"s  c #AAD7A1",
"Y. c #F7F9F5",
"1  c #EDEEEB",
"R. c #FCFDFA",
"O. c #338C20",
"u  c #EDEEEE",
">  c #FCFAF6",
"u. c #DEE2F2",
"V. c #F7F6F8",
"t. c #83B881",
"%. c #C3C5C9",
"Z. c #EBEEF0",
"#  c #C8C9CB",
"i. c #E6EAF2",
"j  c #F5F6F5",
"U  c #F0F2F5",
";  c #FFFEFC",
"=. c #D7DBEB",
"~  c #51A140",
";. c #AFCFAA",
"@. c #4C9A3B",
"P  c #F5F3FB",
"A  c #E9EEEF",
"+  c #C6C9CA",
"Q  c #399425",
"t  c #C6C9CB",
"N. c #75B078",
"2. c #3B8E2F",
"b. c #E4E7EF",
"G  c #ECF2EB",
"L  c #E0EDE0",
"n  c #F3F0F7",
"/  c #CDE4C7",
"Q. c #E2E1D8",
"!. c #C9CACA",
"4. c #DBE6E2",
"$  c #C9CACB",
"y. c #F8F4FF",
"*  c #FBFBF6",
"e  c #FBFBF7",
"6  c #E3F1E0",
"4  c #F1F0EE",
":. c #8EBE87",
"0  c #F1F0EF",
"l. c #4A974C",
"%  c #C7CACA",
"O  c #C7CACB",
"r  c #C7CACC",
"w  c #EFF0EE",
"d. c #E0E4ED",
"n. c #E5E8EF",
"7. c #DBE0ED",
"f. c #E0E4EF",
"z  c #EAECF1",
"3. c #BFD9B9",
"5. c #EAECF7",
"D. c #F9F8FB",
"9. c #EFF0FA",
"K  c #CEE5CA",
"x  c #F9F5FD",
"p. c #C5C7CB",
"p  c #F2F4F2",
"7  c #C7E4C1",
"l  c #F2F4F5",
"L. c #F2F1EF",
"9  c #F2F1F0",
"_  c #E4EFE1",
"S  c #F0F4EF",
"$. c #F2F1FC",
"[  c #C3C7CB",
"F. c #EBEDF1",
"c  c #B9DCB2",
"g. c #E1E5F0",
"a. c #EBEDF4",
"|  c #B4D5AA",
"1. c #4E9945",
"0. c #F0F1F9",
".. c #1E7F09",
"E  c #DBEBD6",
"@  c #C6C8C9",
"m  c #E9EDEF",
"G. c #E9EDF0",
"Y  c #C6C8CB",
"e. c #FAF6FF",
"H  c #EEF1F2",
"T. c #F8F9F6",
"v. c #EEF1F4",
"V  c #F3F5F5",
"P. c #FDFDFA",
"m. c #E9EAF4",
" . c #2D8819",
"W. c #C9C9CA",
"c. c #DDE2EC",
"h  c #ECEEEF",
"=  c #FBFAF5",
"b  c #F6F6F6",
"}  c #ECEEF5",
"H. c #F6F6F8",
"i  c #F1EFF2",
"J  c #FBFAFF",
"^  c #CBE3C5",
"D  c #79BA6B",
"o  c #C7C9CB",
"J. c #C7C9CC",
".  c #CCCDCD",
"-. c #F6F3FF",
"U. c #F9FAF7",
"h. c #E0E3ED",
"f  c #EFEFF0",
"q. c #E0E3EF",
"W  c #61AA50",
"N  c #F4F3F9",
"C  c #C5C9CB",
"&  c #EDEFEB",
/* pixels */
"  . X o O + @ o o o o # $ .   ",
"% & * = - ; : > , , , = < 1 % ",
"O 2 3 4 5 6 7 8 9 0 0 q w e r ",
"t y u i p a s d f g g g h j k ",
"t l z x c v b n m M N B m V k ",
"C Z A S D F G H J K L P I U Y ",
"T R E W Q ! ~ ^ / ( ) _ ` ' ] ",
"[ { } |  ...X.o.O.+...@.#.$.%.",
"&.*.=.-.;.:.>.,.<.1.2.3.4.5.T ",
"&.6.7.8.9.0.q.w.e.r.t.y.u.i.p.",
"] a.s.d.f.g.h.j.k.l.z.x.c.a.] ",
"Y v.b.n.n.n.m.M.N.k.B.n.b.v.Y ",
"o V.C.Z.Z.Z.C.A.S.D.F.Z.G.H.J.",
"K.L.P.I.I.I.I.U.Y.T.I.I.R.E.W.",
"Q.!.X X X X $ $ X X X $ X !.~."
};
